<?xml version="1.0" encoding="utf-8"?>
<!-- Generator: Adobe Illustrator 12.0.0, SVG Export Plug-In . SVG Version: 6.00 Build 51448)  -->
<!DOCTYPE svg PUBLIC "-//W3C//DTD SVG 1.1//EN" "http://www.w3.org/Graphics/SVG/1.1/DTD/svg11.dtd" [
	<!ENTITY ns_svg "http://www.w3.org/2000/svg">
	<!ENTITY ns_xlink "http://www.w3.org/1999/xlink">
]>
<svg  version="1.1" id="Layer_1" xmlns="&ns_svg;" xmlns:xlink="&ns_xlink;" width="444.833" height="148.666"
	 viewBox="0 0 444.833 148.666" overflow="visible" enable-background="new 0 0 444.833 148.666" xml:space="preserve">
<path fill="none" stroke="#000000" stroke-width="5" d="M146.005,67.676c-0.181-1.943-0.421-3.892-0.766-5.847
	c-0.342-1.955-0.788-3.864-1.28-5.756l-25.871-1.491c-1.908-4.241-4.406-8.113-7.368-11.549l9.587-24.091
	c-3.029-2.509-6.253-4.768-9.65-6.755l-19.36,17.246c-4.239-1.606-8.734-2.627-13.37-2.973L67.677,2.66
	c-1.94,0.184-3.892,0.424-5.849,0.767c-1.951,0.347-3.865,0.788-5.753,1.281l-1.491,25.869c-4.241,1.911-8.116,4.409-11.55,7.368
	l-24.091-9.585c-2.512,3.029-4.77,6.254-6.755,9.648l17.247,19.36c-1.606,4.239-2.63,8.735-2.973,13.373L2.661,80.989
	c0.184,1.943,0.421,3.892,0.767,5.849c0.345,1.955,0.788,3.865,1.279,5.752l25.871,1.495c1.908,4.238,4.406,8.113,7.367,11.547
	l-9.585,24.093c3.027,2.511,6.254,4.768,9.647,6.755l19.36-17.249c4.239,1.608,8.735,2.63,13.37,2.976l10.252,23.797
	c1.943-0.184,3.892-0.424,5.846-0.766c1.958-0.345,3.871-0.789,5.756-1.28l1.491-25.871c4.241-1.908,8.116-4.408,11.55-7.368
	l24.093,9.585c2.511-3.027,4.768-6.251,6.756-9.646l-17.249-19.361c1.608-4.239,2.633-8.732,2.973-13.37L146.005,67.676z
	 M79,100.804C64.38,103.382,50.439,93.621,47.861,79c-2.578-14.62,7.184-28.561,21.805-31.139
	c14.62-2.578,28.561,7.184,31.139,21.804C103.383,84.285,93.621,98.227,79,100.804z"/>
<g>
	<path stroke="#000000" stroke-width="3" stroke-linejoin="round" d="M247.583,40.583c-14.912,0-27,12.089-27,27v13.5l0,0
		c0,14.912,12.088,27,27,27s27-12.088,27-27v-13.5C274.583,52.671,262.495,40.583,247.583,40.583z M261.083,81.083
		c0,7.456-6.044,13.5-13.5,13.5s-13.501-6.044-13.501-13.5V67.597c0-0.005,0-0.01,0-0.015c0-7.456,6.045-13.5,13.501-13.5
		s13.5,6.044,13.5,13.5V81.083z"/>
	<path stroke="#000000" stroke-width="3" stroke-linejoin="round" d="M186.833,40.583c-4.925,0-9.527,1.34-13.501,3.643V18.083
		h-13.5v90h13.5v-40.5h0.001c0-7.456,6.044-13.5,13.5-13.5s13.5,6.044,13.5,13.5h-0.001v40.5h13.5v-40.5h0.001
		C213.833,52.67,201.745,40.583,186.833,40.583z"/>
	<path stroke="#000000" stroke-width="3" stroke-linejoin="round" d="M382.585,18.083h-13.5v26.14
		c-3.975-2.301-8.576-3.64-13.5-3.64c-14.912,0-27,12.088-27,27l0,0v13.5l0,0c0,14.912,12.088,27,27,27s27-12.088,27-27l0,0V18.083z
		 M355.585,94.583c-7.455,0-13.5-6.044-13.5-13.5l0,0v-13.5l0,0c0-7.456,6.045-13.5,13.5-13.5c7.453,0,13.492,6.037,13.5,13.485
		v13.515l0,0C369.085,88.539,363.042,94.583,355.585,94.583z"/>
	<g>
		<path stroke="#000000" stroke-width="3" stroke-linejoin="round" d="M416.335,40.583c-14.912,0-27,12.088-27,27l0,0v13.5
			c0,14.912,12.088,27,27,27h13.498v-13.5h-13.498c-7.455-0.001-13.5-6.044-13.5-13.5h27c7.455-0.001,13.498-6.044,13.498-13.5
			C443.333,52.67,431.247,40.583,416.335,40.583z M429.835,67.583h-27c0-7.456,6.043-13.5,13.5-13.5
			C423.788,54.083,429.835,60.126,429.835,67.583L429.835,67.583z"/>
	</g>
	<g>
		<path stroke="#000000" stroke-width="3" stroke-linejoin="round" d="M308.335,40.583c-14.912,0-27,12.088-27,26.997l-0.002,40.503
			h13.5l0.002-40.503c0-7.453,6.043-13.497,13.5-13.497h13.5v-13.5H308.335z"/>
	</g>
</g>
</svg>
