<svg xmlns="http://www.w3.org/2000/svg" width="444.833" height="148.666" viewBox="0 0 444.833 148.666" overflow="visible"><path fill="#9CCA15" stroke="#000" stroke-width="5" d="M146.005 67.676a72.002 72.002 0 0 0-.766-5.847c-.342-1.955-.788-3.864-1.28-5.756l-25.871-1.491a47.582 47.582 0 0 0-7.368-11.549l9.587-24.091a72.537 72.537 0 0 0-9.65-6.755l-19.36 17.246a47.757 47.757 0 0 0-13.37-2.973l-10.25-23.8c-1.94.184-3.892.424-5.849.767a74.158 74.158 0 0 0-5.753 1.281l-1.491 25.869a47.73 47.73 0 0 0-11.55 7.368L18.943 28.36a72.249 72.249 0 0 0-6.755 9.648l17.247 19.36a47.657 47.657 0 0 0-2.973 13.373L2.661 80.989c.184 1.943.421 3.892.767 5.849a73.616 73.616 0 0 0 1.279 5.752l25.871 1.495a47.615 47.615 0 0 0 7.367 11.547l-9.585 24.093a72.451 72.451 0 0 0 9.647 6.755l19.36-17.249a47.698 47.698 0 0 0 13.37 2.976l10.252 23.797a74.674 74.674 0 0 0 5.846-.766 73.213 73.213 0 0 0 5.756-1.28l1.491-25.871a47.61 47.61 0 0 0 11.55-7.368l24.093 9.585a72.411 72.411 0 0 0 6.756-9.646l-17.249-19.361a47.463 47.463 0 0 0 2.973-13.37l23.8-10.251zM79 100.804C64.38 103.382 50.439 93.621 47.861 79c-2.578-14.62 7.184-28.561 21.805-31.139 14.62-2.578 28.561 7.184 31.139 21.804 2.578 14.62-7.184 28.562-21.805 31.139z"/><path stroke="#000" stroke-width="3" stroke-linejoin="round" d="M247.583 40.583c-14.912 0-27 12.089-27 27v13.5c0 14.912 12.088 27 27 27s27-12.088 27-27v-13.5c0-14.912-12.088-27-27-27zm13.5 40.5c0 7.456-6.044 13.5-13.5 13.5s-13.501-6.044-13.501-13.5V67.597v-.015c0-7.456 6.045-13.5 13.501-13.5s13.5 6.044 13.5 13.5v13.501zM186.833 40.583c-4.925 0-9.527 1.34-13.501 3.643V18.083h-13.5v90h13.5v-40.5h.001c0-7.456 6.044-13.5 13.5-13.5s13.5 6.044 13.5 13.5h-.001v40.5h13.5v-40.5h.001c0-14.913-12.088-27-27-27zM382.585 18.083h-13.5v26.14a26.852 26.852 0 0 0-13.5-3.64c-14.912 0-27 12.088-27 27v13.5c0 14.912 12.088 27 27 27s27-12.088 27-27v-63zm-27 76.5c-7.455 0-13.5-6.044-13.5-13.5v-13.5c0-7.456 6.045-13.5 13.5-13.5 7.453 0 13.492 6.037 13.5 13.485v13.515c0 7.456-6.043 13.5-13.5 13.5zM416.335 40.583c-14.912 0-27 12.088-27 27v13.5c0 14.912 12.088 27 27 27h13.498v-13.5h-13.498c-7.455-.001-13.5-6.044-13.5-13.5h27c7.455-.001 13.498-6.044 13.498-13.5 0-14.913-12.086-27-26.998-27zm13.5 27h-27c0-7.456 6.043-13.5 13.5-13.5 7.453 0 13.5 6.043 13.5 13.5zM308.335 40.583c-14.912 0-27 12.088-27 26.997l-.002 40.503h13.5l.002-40.503c0-7.453 6.043-13.497 13.5-13.497h13.5v-13.5h-13.5z"/></svg>