<svg xmlns="http://www.w3.org/2000/svg" width="205.44" height="205.439" viewBox="0 0 205.44 205.439" overflow="visible"><path fill="#818456" d="M201.865 191.865c0 5.5-4.5 10-10 10H13.575c-5.5 0-10-4.5-10-10V13.575c0-5.5 4.5-10 10-10h178.29c5.5 0 10 4.5 10 10v178.29z"/><path fill="#FFF" stroke="#000" stroke-width="5" d="M156.115 77.917a72.008 72.008 0 0 0-.767-5.847c-.342-1.955-.787-3.864-1.279-5.756l-25.871-1.491a47.582 47.582 0 0 0-7.368-11.549l9.588-24.091a72.537 72.537 0 0 0-9.65-6.755l-19.36 17.246a47.757 47.757 0 0 0-13.37-2.973l-10.252-23.8c-1.94.184-3.892.424-5.849.767a74.158 74.158 0 0 0-5.753 1.281l-1.491 25.869a47.73 47.73 0 0 0-11.55 7.368L29.052 38.6a72.249 72.249 0 0 0-6.755 9.648l17.247 19.36a47.657 47.657 0 0 0-2.973 13.373L12.77 91.229c.184 1.943.421 3.892.767 5.849a73.616 73.616 0 0 0 1.279 5.752l25.871 1.495a47.615 47.615 0 0 0 7.367 11.547l-9.585 24.093a72.451 72.451 0 0 0 9.647 6.755l19.36-17.249a47.698 47.698 0 0 0 13.37 2.976l10.252 23.797a74.674 74.674 0 0 0 5.846-.766 73.213 73.213 0 0 0 5.756-1.28l1.491-25.871a47.61 47.61 0 0 0 11.55-7.368l24.093 9.585a72.411 72.411 0 0 0 6.756-9.646l-17.249-19.361a47.498 47.498 0 0 0 2.974-13.37l23.8-10.25zM89.11 111.045c-14.62 2.578-28.562-7.184-31.14-21.805-2.578-14.62 7.184-28.561 21.805-31.139 14.62-2.578 28.561 7.184 31.139 21.804 2.578 14.621-7.184 28.562-21.804 31.14z"/><path fill="#9CCA15" stroke="#000" stroke-width="5" d="M69.761 190.121a109.103 109.103 0 0 0-8.42-14.094l16.127-21.325a135.61 135.61 0 0 0-10.974-12.151l-22.862 13.861a109.77 109.77 0 0 0-13.156-9.813l6.743-25.888a134.49 134.49 0 0 0-14.772-7.038L6.625 135.237a111.356 111.356 0 0 0-3.051-.957v27.262c18.875 7.726 34.289 22.149 43.291 40.323h54.158l.664-.39a134.028 134.028 0 0 0-5.476-15.415l-26.45 4.061zm132.104-61.294V90.688l-5.266 12.292a58.764 58.764 0 0 0-16.461 3.693l-23.882-21.194a88.975 88.975 0 0 0-11.865 8.342l11.86 29.646a58.59 58.59 0 0 0-9.045 14.24l-31.856 1.897c-.601 2.327-1.142 4.684-1.563 7.095-.42 2.407-.708 4.805-.929 7.197l29.333 12.57a58.617 58.617 0 0 0 3.694 16.459l-16.809 18.94h62.788c4.398 0 7.33-3.098 8.66-7.063-1.943.011-3.093.078-5.073-.268-18.012-3.14-30.066-20.285-26.925-38.297 2.851-16.346 17.238-27.784 33.339-27.41z"/><path fill="none" stroke="#000" stroke-width="6" stroke-linejoin="round" d="M202.44 192.382c0 5.531-4.526 10.058-10.059 10.058H13.058C7.526 202.439 3 197.913 3 192.382V13.058C3 7.526 7.526 3 13.058 3h179.323c5.532 0 10.059 4.526 10.059 10.058v179.324z"/></svg>