<?xml version="1.0" encoding="utf-8"?>
<!-- Generator: Adobe Illustrator 12.0.0, SVG Export Plug-In . SVG Version: 6.00 Build 51448)  -->
<!DOCTYPE svg PUBLIC "-//W3C//DTD SVG 1.1//EN" "http://www.w3.org/Graphics/SVG/1.1/DTD/svg11.dtd" [
	<!ENTITY ns_svg "http://www.w3.org/2000/svg">
	<!ENTITY ns_xlink "http://www.w3.org/1999/xlink">
]>
<svg  version="1.1" id="Layer_1" xmlns="&ns_svg;" xmlns:xlink="&ns_xlink;" width="205.44" height="205.439"
	 viewBox="0 0 205.44 205.439" overflow="visible" enable-background="new 0 0 205.44 205.439" xml:space="preserve">
<path fill="#818456" d="M201.865,191.865c0,5.5-4.5,10-10,10H13.575c-5.5,0-10-4.5-10-10V13.575c0-5.5,4.5-10,10-10h178.29
	c5.5,0,10,4.5,10,10V191.865z"/>
<path fill="#FFFFFF" stroke="#000000" stroke-width="5" d="M156.115,77.917c-0.182-1.943-0.421-3.892-0.767-5.847
	c-0.342-1.955-0.787-3.864-1.279-5.756l-25.871-1.491c-1.908-4.241-4.406-8.113-7.368-11.549l9.588-24.091
	c-3.029-2.509-6.253-4.768-9.65-6.755l-19.36,17.246c-4.239-1.606-8.734-2.627-13.37-2.973l-10.252-23.8
	c-1.94,0.184-3.892,0.424-5.849,0.767c-1.951,0.347-3.865,0.788-5.753,1.281l-1.491,25.869c-4.241,1.911-8.116,4.409-11.55,7.368
	L29.052,38.6c-2.512,3.029-4.77,6.254-6.755,9.648l17.247,19.36c-1.606,4.239-2.63,8.735-2.973,13.373L12.77,91.229
	c0.184,1.943,0.421,3.892,0.767,5.849c0.345,1.955,0.788,3.865,1.279,5.752l25.871,1.495c1.908,4.238,4.406,8.113,7.367,11.547
	l-9.585,24.093c3.027,2.511,6.254,4.768,9.647,6.755l19.36-17.249c4.239,1.608,8.735,2.63,13.37,2.976l10.252,23.797
	c1.943-0.184,3.892-0.424,5.846-0.766c1.958-0.345,3.871-0.789,5.756-1.28l1.491-25.871c4.241-1.908,8.116-4.408,11.55-7.368
	l24.093,9.585c2.511-3.027,4.768-6.251,6.756-9.646l-17.249-19.361c1.608-4.239,2.633-8.732,2.974-13.37L156.115,77.917z
	 M89.11,111.045c-14.62,2.578-28.562-7.184-31.14-21.805c-2.578-14.62,7.184-28.561,21.805-31.139
	c14.62-2.578,28.561,7.184,31.139,21.804C113.492,94.526,103.73,108.467,89.11,111.045z"/>
<path fill="#9CCA15" stroke="#000000" stroke-width="5" d="M69.761,190.121c-2.458-4.921-5.275-9.631-8.42-14.094l16.127-21.325
	c-3.412-4.27-7.077-8.328-10.974-12.151l-22.862,13.861c-4.125-3.587-8.523-6.869-13.156-9.813l6.743-25.888
	c-4.756-2.632-9.687-4.985-14.772-7.038L6.625,135.237c-1.009-0.337-2.029-0.648-3.051-0.957v27.262
	c18.875,7.726,34.289,22.149,43.291,40.323h54.158l0.664-0.39c-1.52-5.278-3.351-10.424-5.476-15.415L69.761,190.121z
	 M201.865,128.827V90.688l-5.266,12.292c-5.711,0.436-11.245,1.705-16.461,3.693l-23.882-21.194
	c-4.179,2.455-8.144,5.244-11.865,8.342l11.86,29.646c-3.637,4.235-6.706,9.013-9.045,14.24l-31.856,1.897
	c-0.601,2.327-1.142,4.684-1.563,7.095c-0.42,2.407-0.708,4.805-0.929,7.197l29.333,12.57c0.434,5.708,1.703,11.241,3.694,16.459
	l-16.809,18.94h62.788c4.398,0,7.33-3.098,8.66-7.063c-1.943,0.011-3.093,0.078-5.073-0.268
	c-18.012-3.14-30.066-20.285-26.925-38.297C171.377,139.891,185.764,128.453,201.865,128.827z"/>
<path fill="none" stroke="#000000" stroke-width="6" stroke-linejoin="round" d="M202.44,192.382
	c0,5.531-4.526,10.058-10.059,10.058H13.058C7.526,202.439,3,197.913,3,192.382V13.058C3,7.526,7.526,3,13.058,3h179.323
	c5.532,0,10.059,4.526,10.059,10.058V192.382z"/>
</svg>
